<svg id="visual" viewBox="0 0 960 540" width="960" height="540" xmlns="http://www.w3.org/2000/svg" xmlns:xlink="http://www.w3.org/1999/xlink" version="1.1"><path d="M0 44L40 50.3C80 56.7 160 69.3 240 71.2C320 73 400 64 480 59.5C560 55 640 55 720 61.3C800 67.7 880 80.3 920 86.7L960 93L960 0L920 0C880 0 800 0 720 0C640 0 560 0 480 0C400 0 320 0 240 0C160 0 80 0 40 0L0 0Z" fill="#c62368"></path><path d="M0 125L40 144C80 163 160 201 240 213.7C320 226.3 400 213.7 480 199.2C560 184.7 640 168.3 720 166.5C800 164.7 880 177.3 920 183.7L960 190L960 91L920 84.7C880 78.3 800 65.7 720 59.3C640 53 560 53 480 57.5C400 62 320 71 240 69.2C160 67.3 80 54.7 40 48.3L0 42Z" fill="#d82c5c"></path><path d="M0 195L40 211.3C80 227.7 160 260.3 240 271.2C320 282 400 271 480 259.2C560 247.3 640 234.7 720 229.3C800 224 880 226 920 227L960 228L960 188L920 181.7C880 175.3 800 162.7 720 164.5C640 166.3 560 182.7 480 197.2C400 211.7 320 224.3 240 211.7C160 199 80 161 40 142L0 123Z" fill="#e63a4f"></path><path d="M0 379L40 388C80 397 160 415 240 421.3C320 427.7 400 422.3 480 418.7C560 415 640 413 720 408.5C800 404 880 397 920 393.5L960 390L960 226L920 225C880 224 800 222 720 227.3C640 232.7 560 245.3 480 257.2C400 269 320 280 240 269.2C160 258.3 80 225.7 40 209.3L0 193Z" fill="#f04d3f"></path><path d="M0 438L40 443.5C80 449 160 460 240 464.5C320 469 400 467 480 463.3C560 459.7 640 454.3 720 449C800 443.7 880 438.3 920 435.7L960 433L960 388L920 391.5C880 395 800 402 720 406.5C640 411 560 413 480 416.7C400 420.3 320 425.7 240 419.3C160 413 80 395 40 386L0 377Z" fill="#f6612c"></path><path d="M0 541L40 541C80 541 160 541 240 541C320 541 400 541 480 541C560 541 640 541 720 541C800 541 880 541 920 541L960 541L960 431L920 433.7C880 436.3 800 441.7 720 447C640 452.3 560 457.7 480 461.3C400 465 320 467 240 462.5C160 458 80 447 40 441.5L0 436Z" fill="#f7770f"></path></svg>