<svg id="visual" viewBox="0 0 600 900" width="600" height="900" xmlns="http://www.w3.org/2000/svg" xmlns:xlink="http://www.w3.org/1999/xlink" version="1.1"><path d="M0 262L25 265C50 268 100 274 150 263.5C200 253 250 226 300 209.5C350 193 400 187 450 197.5C500 208 550 235 575 248.5L600 262L600 0L575 0C550 0 500 0 450 0C400 0 350 0 300 0C250 0 200 0 150 0C100 0 50 0 25 0L0 0Z" fill="#c62368"></path><path d="M0 361L25 380.5C50 400 100 439 150 431.5C200 424 250 370 300 350.5C350 331 400 346 450 359.5C500 373 550 385 575 391L600 397L600 260L575 246.5C550 233 500 206 450 195.5C400 185 350 191 300 207.5C250 224 200 251 150 261.5C100 272 50 266 25 263L0 260Z" fill="#d82c5c"></path><path d="M0 469L25 484C50 499 100 529 150 520C200 511 250 463 300 451C350 439 400 463 450 476.5C500 490 550 493 575 494.5L600 496L600 395L575 389C550 383 500 371 450 357.5C400 344 350 329 300 348.5C250 368 200 422 150 429.5C100 437 50 398 25 378.5L0 359Z" fill="#e63a4f"></path><path d="M0 559L25 580C50 601 100 643 150 629.5C200 616 250 547 300 527.5C350 508 400 538 450 560.5C500 583 550 598 575 605.5L600 613L600 494L575 492.5C550 491 500 488 450 474.5C400 461 350 437 300 449C250 461 200 509 150 518C100 527 50 497 25 482L0 467Z" fill="#f04d3f"></path><path d="M0 784L25 794.5C50 805 100 826 150 829C200 832 250 817 300 814C350 811 400 820 450 826C500 832 550 835 575 836.5L600 838L600 611L575 603.5C550 596 500 581 450 558.5C400 536 350 506 300 525.5C250 545 200 614 150 627.5C100 641 50 599 25 578L0 557Z" fill="#f6612c"></path><path d="M0 901L25 901C50 901 100 901 150 901C200 901 250 901 300 901C350 901 400 901 450 901C500 901 550 901 575 901L600 901L600 836L575 834.5C550 833 500 830 450 824C400 818 350 809 300 812C250 815 200 830 150 827C100 824 50 803 25 792.5L0 782Z" fill="#f7770f"></path></svg>