<?xml version="1.0" encoding="iso-8859-1"?>
<!-- Generator: Adobe Illustrator 19.0.0, SVG Export Plug-In . SVG Version: 6.00 Build 0)  -->
<svg version="1.1" id="Layer_1" xmlns="http://www.w3.org/2000/svg" xmlns:xlink="http://www.w3.org/1999/xlink" x="0px" y="0px"
	 viewBox="0 0 118.988 118.988" style="enable-background:new 0 0 118.988 118.988;" xml:space="preserve">
<g>
	<g>
		<g>
			<path d="M115.037,91.886c0.928-2.435,1.493-5.281,0.439-7.063c-1.333-2.252-5.894-1.069-8.065-1.017
				c-3.159,0.077-6.335,0.119-9.513,0.111c1.898-2.211,2.78-5.808,3.744-8.364c1.614-4.278,2.833-8.715,3.585-13.219
				c0.545-3.263,1.362-6.594,1.75-9.863c0.486-4.092-0.525-8.243-1.31-12.221c-1.559-7.903-7.278-15.086-14.515-18.789
				c-3.061-1.566-8.897-4.067-12.904-3.197c3.421-4.754,5.807-10.503,7.12-15.994c0.333-1.394-1.256-2.906-2.591-1.992
				c-1.282,0.877-3.725,0.32-5.277,0.694c-1.804,0.435-3.044,1.294-4.6,2.235c-3.475,2.102-6.826,4.019-9.49,7.174
				c-2.373,2.809-4.321,5.92-5.508,9.211c-0.161-2.053-0.474-4.094-1.175-5.986c-1.04-2.807-3.67-7.008-7.182-5.789
				c-5.015,1.742-2.457,5.366-0.799,8.427c1.162,2.146,2.09,4.419,2.97,6.7c0.076,0.197,0.126,0.391,0.195,0.586
				c-1.696-0.922-4.024-1.305-5.447-1.577c-6.201-1.187-12.747-1.156-18.839,0.707C14.939,26.543,5.019,39.626,3.41,52.483
				c-0.853,6.821-0.572,13.292,1.116,20.049c1.925,7.702,6.438,13.418,11.946,18.859c5.263,5.198,10.739,8.802,17.581,11.716
				c4.435,1.889,11.946,4.226,16.286,1.297c0.422-0.285,0.671-0.704,0.774-1.157c0.219,0.484,0.435,0.968,0.643,1.453
				c4.015,9.339,14.259,10.927,23.08,13.244c8.836,2.321,19.811,0.719,27.533-4.309c3.566-2.322,7.17-6.493,9.144-10.254
				c1.736-3.307,4.221-7.576,3.543-11.441C115.053,91.919,115.04,91.906,115.037,91.886z M67.521,10.319
				c2.581-2.271,6.857-5.2,10.16-6.153c1.141-0.329,2.264-0.278,3.376-0.264C78.901,9.816,76.133,16,71.384,20.103
				c-2.385,2.06-4.967,3.753-7.34,5.86c-1.096,0.973-2.298,1.715-3.467,2.537c1.38-2.647,3.07-5.259,4.462-7.584
				c1.559-2.604,6.332-7.656,9.455-8.244c0.504-0.095,0.324-0.782-0.112-0.829c-4.034-0.431-8.23,3.082-10.512,6.071
				c-1.827,2.393-2.839,5.304-4.285,7.93c-0.369,0.671-0.733,1.321-1.066,1.971C59.167,21.104,62.36,14.859,67.521,10.319z
				 M50.904,14.885c-0.224-0.48-2.042-3.193-2.01-3.334c1.251-5.379,5.16,1.014,5.517,1.776c0.771,1.646,1.072,3.585,1.235,5.389
				c0.409,4.541-0.085,9.146-0.5,13.684c-0.2,0.081-0.4,0.168-0.599,0.244C56.058,26.594,53.54,20.539,50.904,14.885z
				 M23.066,28.102c1.478-0.907,3.052-1.648,4.686-2.241c-0.406,0.194-0.811,0.405-1.23,0.607c-1.177,0.567-2.36,1.125-3.539,1.688
				C23.012,28.139,23.038,28.119,23.066,28.102z M48.878,100.934c-3.758,1.498-10.786-0.882-14.229-2.466
				c-0.309-0.142-0.605-0.288-0.909-0.431c1.247-4.392,2.873-8.559,3.002-13.273c0.013-0.465-0.693-0.459-0.719,0
				c-0.176,3.188-1.097,6.477-2.058,9.513c-0.336,1.063-0.864,2.176-1.186,3.304c-0.918-0.448-1.807-0.909-2.677-1.382
				c0.424-1.805,2.076-6.142,2.255-6.643c1.167-3.287,2.812-6.763,2.866-10.291c0.007-0.439-0.661-0.436-0.68,0
				c-0.207,4.893-3.651,9.124-4.735,13.757c-0.2,0.853-0.306,1.664-0.613,2.491c-0.018,0.049-0.043,0.099-0.066,0.149
				c-1.071-0.609-2.109-1.254-3.124-1.937c0.301-0.801,0.649-1.541,0.7-1.683c0.813-2.256,1.741-4.434,2.717-6.624
				c0.717-1.61,1.469-3.243,2.073-4.901c0.568-1.562,1.695-3.099,1.787-4.752c0.029-0.515-0.756-0.506-0.797,0
				c-0.083,1.02-0.944,1.996-1.336,2.945c-0.634,1.535-1.201,3.093-1.885,4.611c-1.198,2.661-2.473,5.235-3.467,7.984
				c-0.08,0.222-0.404,0.945-0.715,1.793c-0.976-0.693-1.931-1.44-2.875-2.239c0.848-2.817,2.2-5.27,3.282-8.097
				c1.443-3.77,3.376-7.222,5.2-10.818c0.206-0.407-0.403-0.766-0.614-0.359c-1.828,3.531-3.856,6.868-5.311,10.577
				C23.78,84.671,21.891,87.26,21.227,90c-0.365-0.329-0.731-0.652-1.094-1.001c-0.671-0.646-1.32-1.291-1.957-1.937
				c0.801-1.683,1.775-3.296,2.76-4.897c0.324-0.227,0.505-0.531,0.542-0.88c0.531-0.864,1.058-1.727,1.552-2.599
				c0.881-1.554,1.947-2.998,2.807-4.563c0.845-1.539,1.292-3.267,2.347-4.681c0.236-0.317-0.306-0.74-0.552-0.426
				c-1.116,1.422-1.608,3.138-2.52,4.683c-1.062,1.798-2.271,3.496-3.316,5.309c-0.177,0.307-0.376,0.624-0.586,0.95
				c-0.016-0.075-0.042-0.146-0.052-0.223c-0.048-0.353,0.011-0.761,0.019-1.118c0.009-0.38,0.05-0.774-0.035-1.149
				c-0.083-0.365-0.292-0.567-0.437-0.892c-0.114-0.256-0.527-0.234-0.648,0c-0.149,0.288-0.55,0.547-0.739,0.84
				c-0.283,0.438-0.565,0.942-0.732,1.439c-0.4,1.187-0.271,2.34,0.684,3.179c0.111,0.098,0.246,0.18,0.387,0.25
				c-0.867,1.314-1.7,2.7-2.157,4.08c-3.391-3.533-6.235-7.217-8.177-11.977c-1.761-4.318-2.879-10.269-2.882-15.413
				c0.054-0.013,0.105-0.042,0.141-0.093c2.06-2.943,6.096-4.975,9.034-6.92c3.033-2.008,6.162-4.178,8.911-6.552
				c0.2-0.172-0.088-0.451-0.287-0.287c-3.556,2.921-7.555,5.447-11.421,7.939c-1.832,1.181-5.151,2.932-6.364,5.034
				c0.024-0.949,0.083-1.868,0.192-2.733c0.188-1.504,0.437-2.971,0.743-4.403c0.864-0.583,1.759-1.12,2.593-1.754
				c1.773-1.348,3.462-2.568,5.373-3.712c1.771-1.06,3.401-2.292,5.221-3.266c1.83-0.979,3.417-2.483,5.386-3.175
				c0.357-0.126,0.206-0.696-0.158-0.573c-1.805,0.613-3.145,1.913-4.799,2.809c-2.187,1.185-4.22,2.543-6.379,3.782
				c-1.725,0.99-3.333,2.071-4.882,3.313c-0.666,0.534-1.398,0.985-2.097,1.47c0.501-2.09,1.139-4.097,1.929-6.013
				c2.189-1.379,4.434-2.671,6.558-4.145c3.435-2.383,7.967-3.198,11.363-5.734c0.229-0.171,0.012-0.562-0.229-0.391
				c-3.468,2.459-8.059,3.19-11.54,5.565c-1.65,1.126-3.159,2.244-4.916,3.222c-0.262,0.146-0.524,0.291-0.784,0.437
				c0.707-1.569,1.518-3.077,2.45-4.511c2.066-1.015,4.066-2.442,5.87-3.359c1.968-1,4.111-1.763,6.147-2.632
				c1.005-0.429,2.025-0.814,3.046-1.2c0.292-0.11,0.554-0.233,0.776-0.347c-0.014,0.052,0.039,0.112,0.101,0.08
				c0.434-0.128,0.869-0.257,1.303-0.385c0.236-0.019,0.241-0.359,0-0.371c-3.083-0.153-7.393,2.358-10.195,3.535
				c-2.019,0.847-3.92,1.914-5.841,2.944c1.645-2.197,3.597-4.21,5.895-6.019c0.336-0.156,0.665-0.315,0.981-0.481
				c1.353-0.711,2.724-1.383,4.095-2.058c1.651-0.813,3.919-2.459,5.726-2.616c0.138-0.012,0.143-0.218,0-0.219
				c-0.172-0.001-0.339,0.009-0.503,0.026c4.101-1.139,8.48-1.41,12.66-0.984c2.401,0.245,8.752,0.334,10.199,2.715
				c0.142,1.031,0.206,2.078,0.162,3.182c-0.041,1.027-0.587,2.231-0.617,3.276c-1.844,0.478-3.748,0.648-5.858,0.236
				c-0.182-0.035-0.286,0.195-0.126,0.3c2.496,1.647,6.191,3.575,9.263,2.572c0.271-0.089,0.559-0.201,0.844-0.309
				c0.405,0.001,0.802-0.144,1.071-0.444c1.091-0.487,2.175-1.072,3.027-1.729c0.639-0.493,1.098-1.31,1.55-2.098
				c1.235-0.69,2.394-1.448,3.33-2.132c1.765-1.29,3.181-2.979,4.971-4.247c1.612-1.142,3.38-2.075,4.779-3.501
				c0.518-0.528,1.006-1.094,1.489-1.664c0.326,0.03,0.666,0,1.129,0.127c2.815,0.774,5.647,1.213,8.407,2.313
				c4.643,1.851,7.93,4.765,11.024,8.565c3.314,4.069,4.124,7.291,4.956,12.262c1.145,6.845-0.107,13.832-1.595,20.595
				c-0.816,3.71-2.019,7.42-3.38,10.959c-1.027,2.67-2.904,5.483-3.378,8.288c-0.025,0.148-0.027,0.284-0.014,0.413
				c-1.306-0.025-2.612-0.057-3.916-0.106c-4.056-0.153-8.047-1.272-12.03-1.346c-0.065-0.091-0.163-0.162-0.297-0.19
				c-5.423-1.126-11.121-1.103-16.622-1.579c-2.777-0.24-5.53-0.237-8.3-0.642c-2.257-0.33-4.406-1.101-6.686-0.863
				c-0.62,0.065-1.2,0.488-1.18,1.18c0.115,3.927,0.158,7.938,1.446,11.69c1.028,2.993,2.449,5.93,3.827,8.855
				C49.689,100.763,49.308,100.762,48.878,100.934z M59.235,107.415c0.298-1.364,0.833-2.617,1.377-3.912
				c0.027,0.019,0.056,0.037,0.084,0.055c0.744,0.492,1.499,0.97,2.264,1.435c-0.044,0.694-0.073,1.388-0.009,2.081
				c0.088,0.946,0.486,1.818,0.638,2.752C62.042,109.164,60.582,108.384,59.235,107.415z M64,110.004
				c0.093-0.049,0.173-0.125,0.182-0.24c0.079-0.982-0.269-1.813-0.401-2.773c-0.071-0.518-0.091-1.045-0.095-1.573
				c1.91,1.128,3.874,2.166,5.903,3.044c0.014,0.006,0.029,0.012,0.044,0.019c0.278,0.671,0.391,1.407,0.605,2.118
				c0.179,0.595,0.446,1.099,0.743,1.605C68.516,111.57,66.173,110.895,64,110.004z M72.596,112.612
				c-0.082-0.021-0.163-0.041-0.245-0.062c-0.366-0.591-0.8-1.141-1.061-1.795c-0.242-0.608-0.387-1.221-0.568-1.812
				c1.27,0.531,2.615,1.042,3.979,1.398c0.092,0.955,0.202,1.907,0.368,2.848C74.253,113.01,73.432,112.82,72.596,112.612z
				 M76.176,113.421c-0.136-0.867-0.251-1.803-0.271-1.989c-0.03-0.281-0.064-0.562-0.094-0.842
				c0.806,0.152,1.612,0.241,2.407,0.225c0.769-0.016,1.641-0.07,2.437-0.289c0.163,1.042,0.125,2.12,0.258,3.204
				c0.018,0.144,0.044,0.291,0.076,0.438C79.409,114.006,77.81,113.75,76.176,113.421z M81.31,109.021
				c-0.134-0.344-0.291-0.681-0.498-1.005c-0.342-0.535-1.192-0.047-0.857,0.501c0.191,0.312,0.326,0.632,0.437,0.954
				c-1.545,0.054-3.378-0.23-4.309-0.425c-0.154-0.032-0.304-0.081-0.458-0.117c-0.08-0.721-0.154-1.442-0.242-2.163
				c-0.076-0.626-1.064-0.646-1,0c0.062,0.628,0.115,1.258,0.168,1.889c-1.963-0.557-3.867-1.348-5.708-2.205
				c-1.779-0.828-3.432-1.863-5.14-2.815c0.001-0.123,0.167-0.246,0.167-0.369c0-0.418-0.486-0.417-0.486,0c0,0.004,0,0.008,0,0.013
				c0-0.035-0.293-0.074-0.36-0.109c-0.505-0.266-1.21-0.546-1.867-0.847c0.532-1.441,0.908-2.921,1.389-4.38
				c0.058-0.177-0.088-0.375-0.26-0.423c-0.097-0.027-0.204-0.054-0.301-0.081c-0.423-0.118-0.603,0.527-0.186,0.655
				c0.011,0.003-0.8,2.096-1.491,3.871c-0.772-0.369-1.538-0.783-2.203-1.249c0.417-0.612,0.835-1.221,1.254-1.842
				c0.667-0.99,1.562-2.26,1.242-3.516c-0.06-0.236-0.335-0.269-0.502-0.132c-0.139,0.113-0.277,0.226-0.416,0.34
				c-0.248,0.203,0.083,0.639,0.346,0.448c0.005-0.004,0.01-0.007,0.015-0.011c-0.093,1.233-1.306,2.576-1.964,3.465
				c-0.187,0.253-0.385,0.511-0.582,0.773c-0.379-0.333-0.71-0.687-0.924-1.083c-0.115-0.214-0.486-0.068-0.4,0.169
				c0.209,0.571,0.523,1.057,0.896,1.494c-0.64,0.89-1.215,1.84-1.396,2.89c-0.04,0.232,0.267,0.397,0.4,0.169
				c0.494-0.851,1.022-1.666,1.563-2.472c0.673,0.617,1.462,1.131,2.25,1.633c-0.283,0.725-0.497,1.268-0.534,1.355
				c-0.371,0.863-0.668,1.686-0.738,2.55c-1.926-1.515-3.614-3.44-4.995-6.012c-1.87-3.483-4.046-6.946-5.247-10.71
				c-0.84-2.633-1.086-5.863-1.223-8.769c2.529,0.034,5.163,0.934,7.63,1.179c3.016,0.299,6.11,0.511,9.133,0.725
				c2.684,0.19,5.554,0.562,8.365,0.556c-0.745,2.505,1.777,5.195,3.168,6.999c0.267,0.347,0.543,0.675,0.829,0.991
				c-0.603-0.053-1.19-0.147-1.749-0.513c-0.661-0.432-1.222-1.28-1.756-1.861c-1.165-1.265-1.881-2.826-3.248-3.904
				c-0.193-0.152-0.451,0.087-0.276,0.276c0.876,0.951,1.409,2.106,2.11,3.175c0.495,0.754,1.108,1.405,1.688,2.094
				c1.208,1.434,2.254,1.749,3.947,1.436c0.448,0.393,0.937,0.739,1.517,0.991c1.517,0.658,3.186,0.249,4.627,1.091
				c0.395,0.231,0.985-0.263,0.673-0.673c-0.894-1.178-2.304-1.627-3.599-2.247c1.431,0.259,2.843,0.623,4.314,0.588
				c1.668-0.04,2.753-0.8,4.063-1.744c0.362-0.261,0.154-0.842-0.31-0.735c-1.661,0.38-2.849,1.276-4.643,1.322
				c-1.592,0.041-3.157-0.27-4.75-0.243c-0.007,0-0.009,0.006-0.016,0.007c-0.14-0.109-0.284-0.214-0.412-0.34
				c-1.788-1.766-3.927-4.369-4.946-6.739c0.337-0.016,0.674-0.032,1.008-0.063c3.642,0.688,7.299,1.085,10.962,1.394
				c-1.742,1.835-6.129,1.592-7.844-0.202c-0.173-0.181-0.389-0.116-0.508,0.033c-0.161-0.19-0.318-0.376-0.47-0.555
				c-0.213-0.252-0.681-0.051-0.66,0.273c0.215,3.301,3.387,5.521,6.478,5.554c2.447,0.026,6.79-1.497,4.733-4.743
				c-0.156-0.246-0.49-0.237-0.648,0c-0.418,0.628-0.375,1.54-0.855,2.1c-0.817,0.953-3.117,0.844-4.238,0.634
				c-1.216-0.229-2.274-1.055-3.201-2.001c2.663,1.376,8.287,2.279,7.946-1.034c5.082,0.412,10.171,0.676,15.242,1.293
				c1.887,0.23,3.819-0.176,5.715-0.099c-0.301,0.014,1.325,0.258,2.805,0.458c-0.535,0.847-1.033,1.714-1.4,2.641
				c-1.475,3.729-2.222,7.398-5.039,10.466c-2.803,3.052-5.633,4.919-9.312,6.698c-4.268,2.065-8.193,1.719-12.839,2.252
				C81.351,108.989,81.337,109.011,81.31,109.021z M111.839,88.363c-0.216,1.139-0.572,2.289-0.766,3.425
				c-0.262,1.536-0.282,2.132,0.338,3.544c0.03,0.069,0.074,0.121,0.115,0.176c-1.053,2.588-2.495,5.215-3.853,7.261
				c-2.815,4.24-6.674,7.07-11.191,9.079c-4.941,2.197-9.595,2.776-14.395,2.42c-0.287-0.775-0.154-1.922-0.219-2.61
				c-0.049-0.52-0.126-1.028-0.233-1.526c0.236-0.134,0.447-0.302,0.639-0.494c7.914,0.787,16.038-1.281,21.447-7.259
				c2.82-3.118,4.446-6.411,6.171-10.232c0.535-1.185,1.314-2.502,1.957-3.855C111.844,88.316,111.842,88.337,111.839,88.363z"/>
			<path d="M15.921,72.815c0.123-0.507,0.043-1.035,0.018-1.55c0.452-0.539,0.911-1.074,1.358-1.616
				c1.961-2.378,4.128-5.432,6.771-7.068c0.401-0.248,0.036-0.88-0.371-0.634c-2.61,1.577-4.911,4.365-6.925,6.838
				c-0.013-0.457-0.364-0.918-0.89-0.924c-0.134-0.002-0.269-0.003-0.403-0.004c-0.317-0.003-0.735,0.186-0.867,0.497
				c-0.268,0.635-0.769,1.101-0.926,1.791c-0.155,0.68-0.148,1.472,0.013,2.181c-1.269,1.464-2.393,3.1-2.188,4.937
				c0.044,0.395,0.607,0.529,0.729,0.099c0.421-1.48,1.161-2.773,2.035-3.989C14.847,73.76,15.72,73.645,15.921,72.815z"/>
			<path d="M75.556,94.765c-2.494-0.77-4.73-1.719-6.42-3.755c-0.299-0.36-0.786,0.151-0.508,0.508
				c1.18,1.519,2.324,2.489,4.099,3.242c2.071,0.878,4.554,1.162,6.466,2.328c0.382,0.233,0.718-0.277,0.454-0.589
				C78.643,95.309,76.962,95.2,75.556,94.765z"/>
			<path d="M21.154,53.993c1.31-1.052,2.78-1.787,3.916-3.041c0.228-0.252-0.139-0.625-0.376-0.376
				c-1.147,1.208-2.655,1.928-3.966,2.933c-1.436,1.101-2.819,2.305-4.215,3.459c-3.023,2.499-6.402,4.991-8.844,8.083
				c-0.239,0.302,0.123,0.676,0.425,0.425c3.069-2.54,5.923-5.376,8.958-7.969C18.42,56.341,19.754,55.118,21.154,53.993z"/>
			<path d="M22.566,57.578c0.372-0.273,0.015-0.902-0.367-0.627c-3.148,2.265-5.964,5.246-8.624,8.063
				c-1.583,1.676-4.413,4.887-3.998,7.335c0.051,0.303,0.557,0.301,0.61,0c0.524-2.964,3.124-5.866,5.169-7.901
				C17.715,62.101,19.871,59.559,22.566,57.578z"/>
			<path d="M25.074,65.085c-1.776,3.111-3.865,6.13-5.903,9.076c0.153-0.534,0.226-1.09,0.058-1.631
				c-0.283-0.908-1.791-0.795-1.726,0.234c0.023,0.367-0.195,0.504-0.428,0.762c-0.313,0.346-0.608,0.721-0.81,1.146
				c-0.488,1.025-0.261,2.225,0.699,2.746c-1.014,1.649-1.821,3.405-1.883,5.346c-0.011,0.355,0.482,0.387,0.591,0.08
				c0.664-1.866,1.521-3.611,2.468-5.302c0.362-0.175,0.58-0.569,0.577-1.012c2.205-3.741,4.827-7.239,6.972-11.086
				C25.912,65.044,25.303,64.687,25.074,65.085z"/>
			<path d="M40.009,88.161c-0.404,2.183-1.355,4.375-2.184,6.429c-0.553,1.37-1.215,2.586-0.671,4.069
				c0.069,0.187,0.277,0.3,0.463,0.188c0.269-0.171,0.547-0.327,0.832-0.469c0.113-0.06,0.065-0.258-0.067-0.247
				c-1.507,0.123,0.255-2.947,0.548-3.764c0.7-1.945,1.517-3.954,1.825-6.001C40.828,87.885,40.1,87.666,40.009,88.161z"/>
			<path d="M42.474,94.003c0.492,0.681-0.346,1.703-0.586,2.379c-0.33,0.929-0.55,1.851-0.932,2.765
				c-0.192,0.46,0.443,0.661,0.738,0.43c0.984-0.773,0.969-2.466,1.445-3.557c0.387-0.885,0.737-1.756,0.077-2.59
				C42.887,93.013,42.16,93.567,42.474,94.003z"/>
			<path d="M58.108,91.276c-2.107,2.292-2.574,5.666-3.949,8.358c-0.125,0.245,0.209,0.551,0.405,0.312
				c0.882-1.072,1.271-2.61,1.839-3.866c0.644-1.42,1.174-2.854,1.909-4.23c0.076,0.052,0.194,0.027,0.191-0.086
				c-0.002-0.109-0.004-0.218-0.006-0.327C58.493,91.248,58.246,91.126,58.108,91.276z"/>
		</g>
	</g>
</g>
<g>
</g>
<g>
</g>
<g>
</g>
<g>
</g>
<g>
</g>
<g>
</g>
<g>
</g>
<g>
</g>
<g>
</g>
<g>
</g>
<g>
</g>
<g>
</g>
<g>
</g>
<g>
</g>
<g>
</g>
</svg>
